<?xml version="1.0" encoding="utf-8"?>
<!-- Generator: Adobe Illustrator 18.1.1, SVG Export Plug-In . SVG Version: 6.00 Build 0)  -->
<!DOCTYPE svg PUBLIC "-//W3C//DTD SVG 1.1//EN" "http://www.w3.org/Graphics/SVG/1.1/DTD/svg11.dtd">
<svg version="1.1" id="Layer_1" xmlns="http://www.w3.org/2000/svg" xmlns:xlink="http://www.w3.org/1999/xlink" x="0px" y="0px"
	 viewBox="-25 0 1013 560" enable-background="new -25 0 1013 560" xml:space="preserve">
<rect y="88" fill="#1F70C1" width="186.8" height="26.3"/>
<path fill="#1F70C1" d="M213.3,88v26.3h266.3c0,0-27.2-26.3-63.3-26.3H213.3z"/>
<polygon fill="#1F70C1" points="531.8,88 531.8,114.3 692.9,114.3 683.4,88 "/>
<polygon fill="#1F70C1" points="808.4,88 798.9,114.3 958.6,114.3 958.6,88 "/>
<rect y="139.1" fill="#1F70C1" width="186.8" height="26.3"/>
<path fill="#1F70C1" d="M213.3,139.2v26.2h297.2c0,0-3.5-20.3-9.5-26.2H213.3z"/>
<polygon fill="#1F70C1" points="531.8,139.2 531.8,165.4 710.6,165.4 701.8,139.2 "/>
<polygon fill="#1F70C1" points="789.3,139.2 780.5,165.4 958.6,165.4 958.6,139.2 "/>
<rect x="53.7" y="190.1" fill="#1F70C1" width="80.9" height="26.3"/>
<rect x="267.1" y="190.1" fill="#1F70C1" width="80.9" height="26.3"/>
<path fill="#1F70C1" d="M426.7,190.1v26.3h80.9c0,0,5.2-13.9,5.2-26.3H426.7z"/>
<polygon fill="#1F70C1" points="585.6,190.1 585.6,216.5 729,216.5 719.5,190.1 "/>
<polygon fill="#1F70C1" points="771.7,190.1 762.1,216.5 906.3,216.5 906.3,190.1 "/>
<rect x="53.7" y="241.3" fill="#1F70C1" width="80.9" height="26.3"/>
<path fill="#1F70C1" d="M267.1,241.3v26.3h206.7c0,0,17.3-13.4,22.8-26.3H267.1z"/>
<polygon fill="#1F70C1" points="585.6,241.3 585.6,267.6 666.5,267.6 666.5,252.9 671.6,267.6 819.8,267.6 825.4,252.9 825.4,267.6 
	906.3,267.6 906.3,241.3 754.4,241.3 746.3,263.6 738.2,241.3 "/>
<rect x="53.7" y="292.4" fill="#1F70C1" width="80.9" height="26.3"/>
<path fill="#1F70C1" d="M267.1,292.4v26.3h229.5c-5.5-12.8-22.8-26.3-22.8-26.3H267.1z"/>
<rect x="585.6" y="292.4" fill="#1F70C1" width="80.9" height="26.3"/>
<polygon fill="#1F70C1" points="681.2,292.4 691,318.7 802.1,318.7 811.4,292.4 "/>
<rect x="825.4" y="292.4" fill="#1F70C1" width="80.9" height="26.3"/>
<rect x="53.7" y="343.5" fill="#1F70C1" width="80.9" height="26.3"/>
<rect x="267.1" y="343.5" fill="#1F70C1" width="80.9" height="26.3"/>
<path fill="#1F70C1" d="M426.7,343.5v26.3h86c0-12.4-5.2-26.3-5.2-26.3H426.7z"/>
<rect x="585.6" y="343.5" fill="#1F70C1" width="80.9" height="26.3"/>
<polygon fill="#1F70C1" points="699.6,343.5 709.1,369.8 783.6,369.8 793.2,343.5 "/>
<rect x="825.4" y="343.5" fill="#1F70C1" width="80.9" height="26.3"/>
<rect x="1.4" y="394.6" fill="#1F70C1" width="186.8" height="26.3"/>
<path fill="#1F70C1" d="M213.3,394.6v26.3h287.6c6-6,9.5-26.3,9.5-26.3H213.3z"/>
<rect x="533.3" y="394.6" fill="#1F70C1" width="133.2" height="26.3"/>
<polygon fill="#1F70C1" points="718,394.6 727.7,420.9 765.6,420.9 774.8,394.6 "/>
<rect x="825.4" y="394.6" fill="#1F70C1" width="134.6" height="26.3"/>
<rect x="1.4" y="445.7" fill="#1F70C1" width="186.8" height="26.3"/>
<path fill="#1F70C1" d="M213.3,445.7V472h203c36,0,63.3-26.2,63.3-26.2L213.3,445.7L213.3,445.7z"/>
<rect x="533.3" y="445.7" fill="#1F70C1" width="133.2" height="26.3"/>
<polygon fill="#1F70C1" points="736.4,445.7 745.8,471.9 747.5,472 757,445.7 "/>
<rect x="825.4" y="445.7" fill="#1F70C1" width="134.6" height="26.3"/>
</svg>
