<?xml version="1.0" encoding="utf-8"?>
<!-- Generator: Adobe Illustrator 18.1.1, SVG Export Plug-In . SVG Version: 6.00 Build 0)  -->
<!DOCTYPE svg PUBLIC "-//W3C//DTD SVG 1.1//EN" "http://www.w3.org/Graphics/SVG/1.1/DTD/svg11.dtd">
<svg version="1.1" xmlns="http://www.w3.org/2000/svg" xmlns:xlink="http://www.w3.org/1999/xlink" x="0px" y="0px"
	 viewBox="0 0 982.5 391.5" enable-background="new 0 0 982.5 391.5" xml:space="preserve">
<g id="Logo">
	<g id="Horsey_4_">
		<polygon points="401.3,331 353.5,309.8 318.5,271 302.4,221.3 307.9,169.3 334,124.1 376.3,93.3 427.4,82.5 468.5,113.3 
			520.8,124.1 486.9,189.3 552.4,221.3 496.2,271 501.3,309.8 453.5,331 		"/>
		<polygon fill="#EF2900" points="359.7,154.3 345.5,95.1 398.9,124.2 		"/>
		<polygon fill="#EF2900" points="276.3,123.4 340.5,140.6 308.8,176.2 		"/>
		<g>
			<polygon fill="#FFFFFF" points="440.1,204.5 462.4,157.9 483.4,153.1 479.7,133 325.9,164.5 349.2,278.1 503,246.6 500.5,234.3 
				468.2,240.8 			"/>
		</g>
		<polygon fill="#EF2900" points="369.7,240 350.3,215.2 357.2,184.5 385.3,170.8 413.3,184.4 420.3,215.2 400.8,240 		"/>
		<polygon fill="#EF2900" points="282.7,214.2 323.3,182.9 330.2,220 		"/>
		<polygon fill="#EF2900" points="287.7,239.2 328.3,207.9 335.2,244 		"/>
		<polygon fill="#EF2900" points="292.7,266.2 333.3,234.9 340.2,271 		"/>
		<polygon fill="#FFFFFF" points="297.4,330.6 365.6,281.2 374.3,365 		"/>
		<polygon fill="#FFFFFF" points="382.8,362.4 376,278.5 452.1,314.6 		"/>
		<polygon fill="#FFFFFF" points="398.2,277.2 422.5,268 418.4,293.6 		"/>
		<polygon fill="#EF2900" points="473.8,187.7 524.9,183.7 510.4,218.5 		"/>
		<polygon fill="#EF2900" points="527.6,73.9 602,152 525.8,174.6 		"/>
		<polygon fill="#EF2900" points="669.6,56.4 587.9,126.9 569.1,49.7 		"/>
	</g>
	<line fill="#EF2900" stroke="#EF2900" stroke-width="20" stroke-miterlimit="10" x1="120.4" y1="268" x2="191.1" y2="151.9"/>
	<g>
		<path d="M58.3,168.1h17.9v80H58.3V168.1z M115.2,224.7h-10.5l7.2,23.4H93.1l-7.2-23.4H76v-17.8h21.3V186H76v-17.9h39.2V224.7z"/>
		<path d="M126.3,168.1h30.6V186h-12.7v44.2h12.7v17.9h-30.6V168.1z M187.3,168.1v80h-30.7v-17.9h12.8V186h-12.8v-17.9H187.3z"/>
		<path d="M199.5,168.1h25.3v80h-16.9V186h-8.4V168.1z M261.7,230.2v17.9h-38.2v-17.9h19.6L231.4,186h-7.9v-17.9h21.9L261.7,230.2z"
			/>
		<path d="M579.9,168.1h17.9v80h-17.9V168.1z M641.8,168.1l-11,54.7h-33.3v-17.9h20l4-18.9h-24v-17.9H641.8z"/>
		<path d="M668.3,230.3h44.8v17.8h-62.7v-79.9h17.9V230.3z M702.1,218H668v-17.9h18.3l2.3-14H668v-17.9h42.4L702.1,218z"/>
		<path d="M721.1,168.2h28.1v79.9h-17.9v-62h-10.2V168.2z M786.1,200.4l-8.8,7.9l8.8,6.1v33.7h-38.2v-17.8h18.9v-9.1l-5.2-4.9h-13.7
			v-17.9h13.7l5.2-5.1v-7.2h-18.9v-17.9h38.3L786.1,200.4z"/>
		<path d="M817,230.3h44.8v17.8h-62.7v-79.9H817V230.3z M850.8,218h-34.1v-17.9H835l2.3-14h-20.6v-17.9h42.4L850.8,218z"/>
		<path d="M873.1,168.1H891v80h-17.9V168.1z M929,224.7h-10.5l7.2,23.4h-18.8l-7.2-23.4h-9.9v-17.8h21.3V186h-21.3v-17.9H929V224.7z
			"/>
	</g>
	<line fill="none" stroke="#EF2900" stroke-width="20" stroke-miterlimit="10" x1="579.4" y1="271" x2="929.4" y2="271"/>
</g>
</svg>
