<?xml version="1.0" encoding="utf-8"?>
<!-- Generator: Adobe Illustrator 18.1.1, SVG Export Plug-In . SVG Version: 6.00 Build 0)  -->
<!DOCTYPE svg PUBLIC "-//W3C//DTD SVG 1.1//EN" "http://www.w3.org/Graphics/SVG/1.1/DTD/svg11.dtd">
<svg version="1.1" id="Layer_1" xmlns="http://www.w3.org/2000/svg" xmlns:xlink="http://www.w3.org/1999/xlink" x="0px" y="0px"
	 viewBox="-201 193 513 605" enable-background="new -201 193 513 605" xml:space="preserve">
<path fill="#1766A6" d="M-117.7,691.4c-0.9-2.6-3-7.8-3.4-12.1c-1.3-9,3.4-14.6,7.8-15.9c4.7-1.3,6.5,0.9,8.6,6.5
	c2.6,8.6,2.6,19.8,1.7,35.8c-0.9,22-12.1,48.2-39.2,47.4c-23.3-0.4-33.6-15.5-34.9-38.8c-0.4-10.8,0.4-22,4.7-37
	c2.6-8.2,4.7-11.2,12.1-12.9c6-0.9,5.2,5.2,3.9,12.1c-3,15.9-4.3,23.7-3,41.8c0.9,19,9.9,26.7,19.4,26.7
	c14.2,0.4,20.7-11.6,23.3-28.9C-115.1,702.6-116.4,695.7-117.7,691.4z M188.1,710.4c5.6,0,7.3,6.5,6,10.8c-1.3,3.9-6,8.6-13.4,9.9
	C179.1,726.8,178.2,710.4,188.1,710.4z M84.3,719.4c0-4.3-2.6-8.2-5.2-8.2s-8.2,2.6-8.2,11.2c0,6.5,2.2,9.9,3.4,11.2
	C82.2,731.1,84.3,724.6,84.3,719.4z M1.6,665.2c-0.4-4.3-3.9-7.3-8.2-7.3c-5.2,0-9.9,5.2-9.5,12.1c0.4,4.3,3,8.2,8.2,8.2
	C-2.3,678.1,2,671.2,1.6,665.2z M44.7,680.7c-0.4-7.3-2.2-10.8-6.5-10.3c-5.2,0.4-7.8,16.8-6.5,34.5c0.9,11.6,2.6,13.4,3.9,12.9
	C38.7,717.7,46,697.5,44.7,680.7z M221.3,708.7c-3.4,13.8-13.4,33.6-28,33.6c-3.4,0-9.5-1.3-9.5-4.7c0-3.9,23.3-4.3,23.3-22
	c0-6.5-6-15.9-15.1-15.9c-12.1,0-23.7,12.9-23.7,31c0,16.4,9.9,21.5,20.2,21.5c17.7,0,28-14.2,33.6-26.3c2.6,8.2,4.3,26.3,10.8,26.3
	c2.6,0,4.7-1.3,7.8-8.6c7.8-17.7,15.5-38.3,26.3-38.3c3.9,0,1.7,7.3,11.2,7.3c4.3,0,7.8-3.9,7.8-8.2c0-6-5.6-10.8-14.2-10.8
	c-25,0-30.2,37.5-34.5,37.5c-6.5,0-4.3-30.2-9.5-30.2C223.9,701.3,221.7,706.5,221.3,708.7z M8.5,740.5c3.9,0,10.8-1.3,16.4-9.9
	c-3-6.9-5.2-20.7-5.6-25.8c-1.7-25.8,8.2-50,19.4-50.8c8.2-0.4,14.2,6.9,15.1,19.4c2.2,32.3-8.6,45.7-14.2,57.3
	c0.9,4.3,8.6,12.1,15.5,12.1c2.6,0,6-1.3,6.5-2.6c-0.4-1.7-0.9-4.3-0.9-7.8c0-18.5,12.1-34.5,22.4-34.5c8.2,0,12.9,10.8,12.9,18.1
	c0,8.6-7.3,15.5-17.7,22c1.7,1.7,5.2,3,8.2,3c15.1,0,23.3-18.5,28.9-34.9c0.9-3,3-7.8,6.5-7.8c6.5,0,9,42.2,19.8,42.2
	c4.7,0,8.2-9.5,8.2-16.4c0-5.2-1.7-6-1.7-13.4c0-8.6,4.7-15.5,10.8-15.5c3.9,0,5.2,3.9,5.2,8.2c0,17.2-12.1,48.7-30.2,48.7
	c-13.8,0-12.5-23.3-17.2-23.3c-5.2,0-12.9,23.7-39.2,23.7c-4.3,0-8.6-2.2-12.5-6.5c-6.5,4.3-11.6,6-17.7,6c-9.9,0-14.2-9.9-18.1-9.9
	c-4.7,0-9.9,10.3-26.3,10.3c-12.9,0-15.1-16.8-19.4-16.8c-3.9,0-9.9,16.8-16.8,16.8c-11.2,0-13.4-29.3-23.3-29.3
	c-7.8,0-31.9,30.2-38.8,29.3c-2.6-0.4-3.9-2.2-3.4-4.7c0.4-3.9,3.4-13.4,4.7-18.1c2.2-8.2,4.3-16.8,5.2-19.8c1.3-3,3.9-4.7,6.5-4.7
	c1.3,0,1.7,2.2,1.7,4.3c1.3,6.5,3,13.4,5.2,13.4c3.9,0,15.9-23.7,23.3-23.7c8.6,0,9.9,37,22,37c3.9,0,6.9-4.7,9.5-10.8
	c0.4-9.9,3-24.1,10.8-24.1c5.6,0,8.2,12.5,4.3,23.3C-5.7,737.5,2.9,740.5,8.5,740.5"/>
<path fill="#1766A6" d="M193.7,324c-2.2,0-4.7,0-6.5-3c-1.3-2.6-0.9-6.5-3.4-8.6c2.6,0.9,4.7,0.9,6.9,0.9c6.5,0,12.5-4.3,17.2-4.3
	c3,0,3.9,2.2,3.9,3.9C212.3,318.8,199.8,324,193.7,324z M196.8,339.9c14.6,0,28-11.6,28-22c0-4.7-2.2-8.6-8.2-9.5
	c0.9,1.3,1.3,2.2,1.3,4.3c0,7.8-11.6,16.4-24.6,16.4c-4.7,0-6,3.4-6,4.7C187.3,338.2,191.2,339.9,196.8,339.9z M195.5,345.5
	c1.7,13.4,22,31.4,27.6,31c3.9-0.4,5.2-17.7,5.2-31c0-7.8,0.4-13.8-3.9-15.1C218.3,343.4,201.1,346.4,195.5,345.5"/>
<path fill="#1766A6" d="M-122,434.3c4.7,0,3.9-29.3,11.6-29.3c1.7,0,2.6,1.7,2.6,4.3c0,6.5-3.4,16.4-3.4,21.5c0,2.6,0.9,3.4,2.2,3.4
	c3.4,0,9.5-32.3,15.1-32.3c1.7,0,2.6,1.7,2.6,3.9c0,6.9-8.6,26.3-8.6,31.9c0,0.9,0.4,1.7,0.9,1.7c3.4,0,10.8-15.1,12.9-22.8
	c1.3-3.9,3-6,4.3-6c1.3,0,2.6,1.7,2.6,4.7c0,7.8-6.9,25.4-13.4,37.5c-4.7,9.5-12.1,22.8-12.1,30.2c0,3.9,0.9,7.8,6,12.5
	c-9-0.4-12.5-1.3-15.9-8.6c-15.1,30.2,28,27.1,12.9,53.8c-2.6-4.7-23.7-9.9-23.7-37.5c0-24.1,21.1-38.3,21.1-48.2
	c0-2.2-0.9-3.9-2.6-5.2c-4.7-3.9-4.7-7.3-8.6-7.3c-2.6,0-6,6-2.6,11.6c1.3,1.7,2.2,3,2.2,4.7c0,3.9-6,14.6-10.8,14.6
	c-4.3,0-7.8-10.8-7.8-28.4c0-15.5,3.4-31,7.8-31c1.3,0,1.7,0.9,1.7,2.2c0,1.7-0.4,5.6-0.4,11.6C-124.6,433.8-123.3,434.3-122,434.3"
	/>
<path fill="#1766A6" d="M-85.8,475.6c6,0,10.8-4.3,10.8-14.2v-14.2c0-5.6,0.4-11.6,4.3-15.9c-0.4,1.7-0.4,3.9-0.4,5.6
	c0,12.1,6.9,20.7,6.9,32.3c0,4.3-1.3,6.9-4.7,6.9c-3.4,0-3-3-3.9-3c-0.4,0-1.3,1.7-1.3,3.9c0,3,2.2,7.8,8.2,7.8c5.2,0,9-4.7,9-9.9
	c0-12.5-9.9-26.7-9.9-40.5c0-6,1.7-9.9,3-12.9c0,28,23.7,48.7,23.7,60.3c0,2.6-2.2,4.7-4.7,4.7c-3.4,0-4.7-2.6-4.7-4.7
	c0-0.9,0-1.3-0.4-1.3c-0.9,0-3.4,3-3.4,6.5c0,4.7,3.9,10.3,10.8,10.3c8.2,0,12.5-6.9,12.5-12.9c0-14.6-28.9-37-28.9-61.2
	c0-4.3,0.9-10.8,3.9-15.9c-18.5,12.1-24.6,28-24.6,41.8c0,12.1-0.4,18.1-6.5,18.1c-3.4,0-3.9-3-5.2-3c-0.9,0-1.3,2.6-1.3,3.4
	C-93.6,472.6-89.7,475.6-85.8,475.6"/>
<path fill="#1766A6" d="M127.8,316.7c1.7-1.3,9.9,0.9,19.8-4.3c1.3-0.9,2.6-0.9,3.9-0.9c4.7,0,3.9,5.6,8.2,5.6c3.4,0,8.2-3,10.8-3
	c4.3,0,10.3,13.4,10.3,19.4c0,7.3-10.8,11.6-23.7,11.6c-19,0-30.2-16.4-30.2-27.1C127,317.5,127.4,317.1,127.8,316.7z M158.4,334.8
	c6,0,10.8-3,10.8-4.3c0-0.4-0.9-0.9-2.6-0.9s-5.6,0-12.5-1.3c-6-0.9-10.3-3.4-12.1-3.4c-0.4,0-0.9,0.4-0.9,0.9
	C141.2,329.2,148.1,334.8,158.4,334.8"/>
<path fill="#1766A6" d="M-82.8,529c-4.7,1.3-12.1,8.6-12.1,20.2c0,13.8,14.6,35.3,39.2,35.3c20.7,0,25.8-14.2,25.8-23.7
	c0-21.1-12.9-36.2-30.2-36.2c-9.5,0-17.7,6.9-17.7,16.8c0,9.5,6.9,23.3,23.7,23.3c7.8,0,12.5-5.6,12.5-12.1s-5.6-15.1-14.2-15.1
	c-2.6,0-4.3,1.7-4.3,4.3c0,3.4,4.7,6.9,10.3,6.9c1.3,0,2.6-0.4,3-0.4c0.4,0.4,0.4,1.3,0.4,1.7c0,3.4-3,5.2-7.8,5.2
	c-7.3,0-14.2-5.2-14.2-13.8c0-5.2,4.3-8.6,10.8-8.6c12.5,0,19.8,11.2,19.8,22.4c0,9.9-5.6,15.9-16.8,15.9
	C-76.8,570-88,549.7-82.8,529"/>
<path fill="#1766A6" d="M78.3,611.7c6.9,0,6.5-0.4,8.6-0.4s2.2,1.3,2.2,2.2c0,3-6.9,6.9-19.4,6.9c-7.3,0-11.6-3.9-12.9-8.2
	c-6.9,4.3-17.7,8.6-28.4,8.6c-28.9,0-36.2-12.5-45.2-16.8c-6.9-3-17.7,3-32.3-13.4c2.2,0.4,4.7,0.4,6.9,0.4
	c12.9,0,19.8-6.5,19.8-16.4c0-1.3,0-2.6-0.4-3.9c3.9,1.7,12.9,8.2,15.1,20.2c0.4,1.3,6,2.6,9.9,2.6c5.2,0,11.6-2.2,12.5-10.3
	c16.8-1.3,28.4-11.6,30.6-24.1c6,2.2,12.9,7.3,14.6,10.3c2.6-0.9,5.2-1.3,8.6-1.3c4.3,0,9.5,0.9,15.5,2.6c0.4-1.7,0.4-3.9,3.4-3.9
	c4.3,0,3,4.7,4.3,7.3c0.9,1.3,4.3,2.2,4.3,5.2c0,2.6-2.2,3.9-3.9,3.9c-0.4,0-1.3,0-1.7-0.4c-3,0.9-3,21.1-14.6,21.1
	c-8.6,0-16.8-7.3-20.2-16.4c-0.9-2.6-3-4.3-5.2-4.3s-3.4,0.4-6,3.4c-7.8,8.2-20.2,15.5-36.2,15.5c-4.7,0-8.6-0.4-9.5-0.4
	c-0.4,0-0.4,0-0.4,0.4c0,0.9,4.7,4.7,15.1,4.7c25,0,31-13.8,34.9-13.8c0.4,0,2.2,0,3.4,2.2C57.6,608.3,70.1,611.7,78.3,611.7z
	 M67.1,583.3c0,3,2.6,5.6,5.6,5.6s5.6-2.6,5.6-5.6c0-3-2.6-5.6-5.6-5.6S67.1,580.3,67.1,583.3"/>
<path fill="#1766A6" d="M179.1,513.1c-2.2,0-4.3,1.7-4.3,5.2c0,4.3,3.4,6.9,5.2,7.8c0.9,0.4,2.6,1.3,3.9,1.3c4.3,0,7.3-1.3,7.3-4.7
	C191.2,518.3,185.1,513.1,179.1,513.1z M163.6,521.7c-3,0-19.4,22-29.7,22c-2.6,0-4.7-4.7-4.7-8.6c0-2.2,1.3-3.4,5.6-4.3
	c24.1-5.6,19-23.7,39.6-23.7c11.6,0,24.1,7.8,24.1,25.4c0,18.5-26.7,41.8-30.6,41.8c-3.4,0-6.9-4.7-6.9-7.8c0-0.9,0.4-2.2,3.4-3.4
	c13.4-5.2,21.1-17.7,21.1-24.1c0-1.3-0.9-3-2.6-3c-2.6,0-12.5,23.3-24.1,23.3c-7.8,0-15.9-7.3-15.9-10.8c0-5.6,22.8-15.9,22.8-24.1
	C166.2,521.7,164.9,521.7,163.6,521.7"/>
<path fill="#1766A6" d="M-115.6,336.9c0,0-3.9,3-9,3c-6,0-10.8-4.3-10.8-10.8c0-4.3,2.2-9,7.3-11.2c0,0.9,0,1.7,0,2.6
	C-128,328.3-123.7,334.3-115.6,336.9z M-85.4,364c-3,3.9-6.5,9.9-6.5,16.4c0,7.8,4.7,13.8,12.1,13.8c6.9,0,10.3-6,10.3-12.1
	C-69.9,372.7-78.1,365.8-85.4,364z M-132.4,369.6c-0.4,0.4-0.4,0.9-0.4,1.7c0,1.3,1.3,2.6,2.6,2.6c1.3,0,1.7-0.4,2.6-0.4
	c3.4,0,7.3,2.6,12.5,2.6c3.4,0,6.9-0.9,12.1-3.4c10.3-5.2,14.2-17.7,14.2-19.8c0-2.6-2.2-2.2-3.9-4.7c-1.7-2.6-1.3-4.7-2.2-5.6
	c-0.9-0.9-2.6-0.9-5.2-0.9c-0.9,0-2.2,0-3,0c-4.7,0-10.3,0.4-16.4,4.3C-131.9,353.3-130.2,366.2-132.4,369.6z M-99.2,352
	c0.9,1.3,3.9,3,3.9,3.9c0,2.2-1.3,4.3-3.4,4.3c-4.7,0-9-7.3-9-11.6c0-2.6,1.7-3,3.9-3c0.9,0,1.3,0,2.2,0.4
	C-100.5,347.2-100.5,349.8-99.2,352z M-112.1,369.2c-4.7,0-9.9-5.6-9.9-11.2c0-3,2.2-6.5,3.9-6.5c0.4,0,0.9,0.4,0.9,1.3
	c0.9,6.9,5.2,10.8,9.5,12.9c0.4,0.4,0.9,0.4,0.9,0.9C-106.9,367.9-109.5,369.2-112.1,369.2z M-100,333.5c0.9-2.2,1.3-5.2,1.3-8.2
	c0-6.9-3-17.2-12.5-17.2c-5.6,0-9.5,4.3-9.5,9.5C-120.7,329.2-110,333.5-100,333.5z M-136.7,389.9c0,10.8,3.4,15.9,9,15.9
	c4.3,0,10.8-3.4,17.7-9.5c-5.6,1.3-9.9,2.2-13.4,2.2C-128.5,398.5-132.4,396.8-136.7,389.9z M-131.5,377.4c0,0.9,0,1.3,0,2.2
	c0,6.5,3.4,10.3,8.2,10.3c3.4,0,7.8-2.2,11.2-6.9c-1.7,0.4-3.4,0.4-5.2,0.4C-122.4,383.4-128,382.1-131.5,377.4z M-97,375.7
	c-3.4,0.9-9.9,4.7-9.9,12.1c0,5.2,3.9,8.2,9,8.2c2.6,0,4.3-0.4,5.6-1.3c-3.9-3.9-5.2-8.2-5.2-12.1C-97.9,379.1-97.5,377.4-97,375.7z
	 M-91.9,336.9c0,3,2.6,5.6,5.6,5.6c3,0,5.6-2.6,5.6-5.6c0-3-2.6-5.6-5.6-5.6S-91.9,333.9-91.9,336.9z M-84.5,349.4
	c0,3,2.6,5.6,5.6,5.6c3,0,5.6-2.6,5.6-5.6c0-3-2.6-5.6-5.6-5.6S-84.5,346.4-84.5,349.4"/>
<path fill="#1766A6" d="M135.6,418.8c0-3,2.6-5.2,5.2-5.2c3,0,5.6,2.6,5.6,5.2c0,3.4-2.6,5.6-5.6,5.6
	C138.2,424.4,135.6,422.2,135.6,418.8z M86,375.2c0,3,2.6,5.6,5.6,5.6c3,0,5.6-2.6,5.6-5.6c0-3-2.6-5.6-5.6-5.6
	C88.6,369.6,86,372.2,86,375.2z M81.3,395.5c0,4.3,3.4,8.2,8.2,8.2c4.3,0,8.2-3.9,8.2-8.2c0-4.3-3.9-8.2-8.2-8.2
	C84.8,387.3,81.3,390.8,81.3,395.5z M99,386.4c0,4.7,3.9,8.6,8.6,8.6s8.6-3.9,8.6-8.6s-3.9-8.6-8.6-8.6
	C102.8,377.8,99,381.3,99,386.4z M99.8,367.9c0,3,2.6,5.2,5.2,5.2c3,0,5.2-2.6,5.2-5.2c0-3-2.6-5.2-5.2-5.2
	C102,362.8,99.8,364.9,99.8,367.9z M125.2,354.6c0,3,2.6,5.2,5.2,5.2c3,0,5.2-2.6,5.2-5.2c0-3-2.6-5.2-5.2-5.2
	C127.4,349,125.2,351.6,125.2,354.6z M114.5,371.8c0,4.7,3.9,9,9,9c4.7,0,9-3.9,9-9c0-4.7-4.3-9-9-9
	C118.8,362.8,114.5,366.6,114.5,371.8z M99.8,405c0,3,2.6,5.6,5.6,5.6c3,0,5.6-2.6,5.6-5.6c0-3-2.6-5.6-5.6-5.6
	C102.4,398.9,99.8,401.5,99.8,405z M118.4,393.3c0,3,2.6,5.6,5.6,5.6c3,0,5.6-2.6,5.6-5.6c0-3-2.6-5.6-5.6-5.6
	C120.9,387.7,118.4,390.3,118.4,393.3z M113.2,413.2c0,5.2,4.3,9.9,9.9,9.9c5.2,0,9.9-4.3,9.9-9.9c0-5.2-4.3-9.9-9.9-9.9
	C117.5,403.7,113.2,408,113.2,413.2z M133.4,401.5c0,3.9,3,6.5,6.5,6.5c3.9,0,6.5-3,6.5-6.5c0-3.9-3-6.5-6.5-6.5
	C136.4,394.6,133.4,397.6,133.4,401.5z M133,383.4c0,3.4,2.6,6,6,6c3.4,0,6-2.6,6-6c0-3.4-2.6-6-6-6C136,377.8,133,380.4,133,383.4"
	/>
<path fill="#1766A6" d="M147.6,568.7c-3.9,3-12.1,9-26.7,9c-7.8,0-11.2-2.6-12.1-2.6c-1.3,0-3,1.3-4.3,3.4
	c-3.4,3.9-7.8,11.2-7.8,19.4c0,5.6,4.3,11.2,12.5,11.2c26.3,0,46.1-16.4,46.1-29.7C155.4,571.7,150.7,568.7,147.6,568.7z
	 M140.3,566.9c1.3-0.9,1.3-2.6,1.3-4.3v-3c0-4.3-6-6.5-14.6-6.5c-10.3,0-15.9,4.7-15.9,6.5v6.5c0,2.6,6,5.2,13.8,5.2
	C131.3,571.7,136.4,570.4,140.3,566.9z M139,581.2c0.9,0,1.7,0.4,1.7,3c0,3-1.3,7.3-6.5,10.3c-3.4,2.6-8.2,4.3-15.5,4.3
	c1.3-3.4,2.2-6.9,2.2-10.3c0-1.3,0-2.2-0.4-3.4h1.7C133.4,585.5,138.2,581.2,139,581.2"/>
<path fill="#1766A6" d="M85.2,408.8c1.7,12.1,17.7,6,17.7,20.2c0,2.2-0.4,5.2-0.4,7.8c0,3,0.4,5.6,2.6,5.6c2.6,0,3-1.7,3-3.9
	s-0.4-5.2-0.4-6.5c0-4.7,3.4-6,5.6-6c5.2,0,9.5,5.6,17.7,5.6c-1.7,9-20.7,6.5-20.7,16.4c0,4.7,4.7,6,8.2,6c3,0,3.9-0.4,3.9-3
	c0-1.3-0.4-3-0.4-3.9c0-0.4,0.4-1.3,1.3-1.3c3,0,18.5,11.6,18.5,15.1c0,3.4-15.9,6.5-20.7,6.5c-1.3,0-1.7-0.9-1.7-1.7
	c0-0.9,2.6-3.9,2.6-5.6c0-1.3-2.2-2.2-7.8-2.2c-2.6,0-4.7,0.4-4.7,2.6c0,3.9,6,8.6,6,12.1c0,3-1.7,4.3-6,4.3c-3.9,0-9.5-3-9.5-7.8
	c0-3.9,3.9-7.8,3.9-10.3c0-0.9-0.4-1.7-2.2-1.7c-5.2,0-6.5,13.8-25,15.5c3-2.6,5.6-5.6,5.6-11.6c0-3-0.9-5.2-0.9-8.6
	c0-4.3,2.2-6.5,4.7-6.5c5.2,0,7.8,7.3,11.2,7.3c1.7,0,3.9-1.7,3.9-4.3c0-10.8-20.7-9-20.7-24.1C80,420.9,81.3,415.7,85.2,408.8z
	 M152.4,450.2c0,3.4,1.3,7.8,4.7,7.8c3,0,5.6-4.3,5.6-9.5c0-5.6-0.9-9.9-0.9-12.5c0-0.9,0.4-1.3,0.9-1.3c2.2,0,4.3,6,6.5,6
	c2.6,0,6.5-4.7,7.8-4.7c0.4,0,0.4,0.4,0.4,0.9c0,2.2-3.4,6.9-3.4,8.6s8.2,1.7,8.2,3.4c0,2.2-8.6,2.2-12.5,3.9
	c-3.9,1.7-6.5,3.9-6.5,6.5c0,3,3,3.4,6.9,3.4c9.5,0,15.9-5.2,18.1-5.2c0.4,0,0.9,0.4,0.9,0.9c0,1.3-4.7,6-4.7,8.2
	c0,2.6,8.6,5.2,8.6,6.5c0,0.4-0.9,0.4-1.7,0.4c-1.7,0-3.9-0.4-5.6-0.4c-1.3,0-2.2,0-2.6,0.9c-0.9,1.3,0.4,8.6-1.7,8.6
	c-1.7,0-6.5-16.8-17.7-16.8c-1.7,0-2.6,1.3-2.6,3.4c0,5.6,5.6,12.1,10.8,15.1c2.2,1.7,6.5,3,6.5,3.9c0,1.7-9,0-9,3
	c0,2.6,1.3,6.5,1.3,8.6c0,0.9,0,1.7-0.9,1.7c-1.7,0-5.6-7.8-7.8-7.8c-1.7,0-5.2,4.7-6.9,4.7c-0.4,0-0.9-0.4-0.9-0.9
	c0-3.4,5.2-10.8,5.2-17.7c0-3.4-0.4-10.8-4.7-10.8c-3.4,0-7.3,5.2-9,10.8c-0.9,3-0.4,15.1-2.6,15.1c-2.2,0-1.7-8.2-4.3-8.2
	c-2.2,0-6.5,3.9-8.2,3.9c-0.4,0-0.4,0-0.4-0.4c0-1.7,4.3-7.3,4.3-8.2c0-2.2-9.5-2.6-9.5-3.9c0-0.9,3.9-1.7,6.9-2.2
	c7.3-1.3,17.7-6.5,17.7-13.8c0-8.2-7.8-11.6-12.9-15.1c-2.6-1.7-5.6-3-5.6-4.3s3.4-1.3,4.7-1.3c2.2,0,4.3,0,4.3-1.7
	c0-1.3-0.4-3.9-0.4-5.6c0-1.3,0-2.6,0.9-2.6c2.2,0,5.2,6.9,6.5,6.9c2.2,0,5.2-5.6,7.3-5.6c0.9,0,0.9,0.4,0.9,1.7
	C155,439,152.4,445,152.4,450.2"/>
<path fill="#1766A6" d="M89.5,489c6.5,0.9,8.2,3,8.2,4.7c0,3-3,3.9-5.6,3.9c-2.2,0-4.3-0.4-6.5-0.4c-3,0-6,0.9-8.6,3.9
	c1.7,0.4,4.3,1.7,4.3,4.3c0,8.2-22.8,1.3-22.8,22.4c0,11.2,11.6,23.3,28.9,23.3c9,0,14.6-3,14.6-6.5c0-2.6-4.7-0.9-4.7-3
	c0-0.9,1.7-3,1.7-4.3c0-0.9-0.4-2.2-1.7-2.2c-2.6,0-7.3,3.9-17.2,3.9c-7.8,0-15.1-4.3-15.1-10.3c0-1.3,0.4-2.2,1.3-2.2
	c0.9,0,2.2,0.4,3,0.4c0.9,0,0.9-0.4,0.9-2.2c0-1.7,0-6,2.6-6c2.6,0,7.8,9.9,27.1,9.9c6.5,0,19-1.3,23.7-5.6
	c0,15.5-12.5,36.2-37.5,36.2c-26.3,0-40.5-21.1-40.5-40.5c0-21.5,17.7-41.4,41.8-41.4c6,0,11.6,2.2,11.6,4.7
	C99,486.8,89.9,484.7,89.5,489z M132.6,496.7c0.9,1.7,1.3,3,1.3,4.3c0,3.9-2.6,7.8-2.6,11.6c0,4.7,3.4,8.6,9,8.6
	c5.6,0,9.9-4.7,9.9-10.3C149.8,503.6,143.3,497.2,132.6,496.7z M86,505.8c1.3,1.3,1.7,3,1.7,4.3c0,2.2-0.9,4.3-0.9,6.9
	c0,3.4,2.6,6.5,6,6.5c3.9,0,6.5-3,6.5-6.9C99.8,510.9,94.2,505.8,86,505.8z M104.6,481.6c14.6,3,22.8,13.8,22.8,24.6
	c0,7.3-4.3,13.8-12.5,13.8c-7.3,0-12.5-4.7-12.5-12.9c0-6,4.7-12.1,4.7-18.1C107.2,486.4,106.7,484.2,104.6,481.6z M111.9,500.6
	c0,2.2,1.3,3.4,3.4,3.4s3.9-2.2,3.9-4.3c0-3-2.6-6.9-5.2-6.9c-1.3,0-0.9,1.7-0.9,3.4C112.8,497.6,111.9,499.3,111.9,500.6"/>
<path fill="#1766A6" d="M-43.6,355.4c4.7,0,10.3-25.8,10.3-30.2c0-1.3-0.4-2.2-1.3-2.2c-4.3,0-10.3,24.6-10.3,30.2
	C-45.3,354.1-44.9,355.4-43.6,355.4z M-9.2,363.2c3.4,0,7.3-13.4,7.3-22c0-1.7-0.4-3.9-1.3-3.9c-3,0-7.8,13.8-7.8,21.5
	C-10.9,361.9-10,363.2-9.2,363.2z M-32,350.3c1.7,0,3.4-1.7,7.3-5.6c0.4-1.7,0.4-3.4,0.4-5.6c0-3-1.3-6-3-6
	c-4.3,0-6.5,11.2-6.5,14.2C-33.7,349-32.8,350.3-32,350.3z M-13,344.7c0-2.6-0.4-3-1.3-3c-1.3,0-3,1.7-5.2,5.6
	c0.4,5.2,1.3,7.3,2.6,7.3C-15.2,354.6-13,349.4-13,344.7z M-1.8,327.9c9.5,0,13.4,8.2,13.4,17.2c0,3.9-1.3,9.9-3,9.9s-1.7-3.4-1.7-6
	c-0.4-3.9-0.9-4.7-2.2-4.7c-2.6,0-3.9,5.6-3.9,10.8c0,3.4,0.4,6.9,3,6.9c1.3,0,2.6-0.9,3.4-1.7c-0.4,6.5-5.2,12.1-12.1,12.1
	c-12.5,0-17.2-14.6-18.5-22.8c-7.3,7.8-14.2,13.8-26.7,13.8c-11.6,0-16.8-8.6-16.8-16.4c0-2.6,0.9-8.6,3.9-8.6
	c3.4,0,0.4,11.6,7.3,11.6c1.7,0,4.7-1.3,6.5-6c0.9-3,1.7-5.6,1.7-8.2c0-3.9-0.9-6-3.9-6c-2.6,0-5.2,1.7-6.5,3
	c3.4-10.3,11.6-15.5,20.7-15.5c11.2,0,17.2,9.9,17.2,20.7c0,1.7,0,3.4-0.4,4.7C-15.6,333.9-9.2,327.9-1.8,327.9"/>
<path fill="#1766A6" d="M-28.5,365.8c-6,0-6.5,7.3-6.5,22c-4.3-9.9-12.1-20.2-20.7-20.2c-6,0-8.2,3.9-8.2,10.8c0,1.3,0,3.4,0.4,4.7
	c0.9-2.6,3-3.4,5.6-3.4c6,0,13.4,4.7,18.1,11.2c-5.6-0.9-10.8-2.2-15.5-2.2c-3,0-5.2,0.4-7.3,1.3c-4.3,1.7-9.5,7.8-9.5,17.2
	c0,1.3,0,3,0.4,4.7c4.7-11.2,18.1-15.9,26.7-15.9c1.7,0,3,0,3.9,0.4c-4.3,3.9-5.2,10.8-5.6,15.5c0,2.2-0.9,2.6-2.6,2.6
	c0,4.7,3.9,11.6,3.9,15.1c0,1.3-0.9,2.6-1.3,2.6c0,6,6,10.8,6,14.6c0,0.9-0.4,1.7-0.9,2.2c0.4,2.6,7.3,6.9,8.2,9c1.3,2.6,2.2,3,3,3
	c2.6,0,6-3,6-5.2c0-0.9-0.9-1.7-1.3-2.2c-2.6-2.2-4.3-6-5.2-9c-0.9,0-2.2-0.4-2.6-2.2c-0.9-3-0.9-8.2-2.2-11.6
	c-1.7-0.4-2.6-1.3-2.6-4.7c0-1.7,1.3-9,1.3-11.6c-0.9,0-2.2-0.4-2.2-2.2c0-4.3,4.3-8.2,5.6-13.8c8.2,6,9.9,12.1,9.9,17.2
	c0,3-0.4,5.6-0.9,8.2c6-3,14.6-7.3,14.6-16.4c0-5.2-2.6-11.2-18.5-13.4c4.7-1.7,11.2-3,16.4-3c9,0,14.2,3,15.5,9c1.7-3,3.4-6,3.4-9
	c0-6.9-5.6-11.6-12.9-11.6c-8.6,0-16.4,4.3-24.6,9.9c3.9-7.8,6-12.1,10.8-12.1c0.9,0,1.3,0,2.2,0.4
	C-18.6,372.2-25.1,365.8-28.5,365.8"/>
<path fill="#1766A6" d="M209.2,467.9c6.9,0,12.5,9,12.5,19.8c0,11.6-5.2,23.7-15.1,32.3c0-19-23.3-12.9-23.3-26.7
	c0-6,4.3-9.9,9.5-9.9c4.3,0,8.2,1.3,10.8,3.9c-2.6-2.6-3.9-5.6-3.9-9C199.8,472.6,203.2,467.9,209.2,467.9"/>
<path fill="#1766A6" d="M83.5,333.5c3.9,3.4,6.9,5.2,10.8,5.2c1.7,0,3.4-0.4,4.3-0.4c1.3,0,2.2,0.4,2.2,1.7c0,1.7-1.3,4.3-3,5.6
	c1.7,0.9,3.4,0.9,5.6,0.9c8.2,0,17.2-5.2,17.2-17.7c1.7,2.2,2.6,6.9,2.6,9c0,15.5-11.2,21.1-21.5,21.1c-6.9,0-10.3-2.2-11.2-2.2
	c-2.6,0-2.6,5.2-4.3,5.2c-3.4-0.4-6-7.8-6-15.5C79.6,342.1,80.9,337.3,83.5,333.5z M104.6,323.6c-1.3-1.7-5.2-3-7.3-3
	c-6,0-10.3,4.3-11.2,8.2c-0.4-1.3-0.9-3-0.9-4.7c0-6,4.3-13.8,14.6-13.8c9,0,12.5,4.7,13.8,4.7c1.3,0,3-1.3,3.9-1.3
	c1.7,0,1.7,2.6,1.7,4.3c0,5.6-2.6,15.5-9,19c-1.3-2.6-3.4-5.2-6.9-6.9c-0.9-0.4-1.3-1.3-1.3-2.2
	C101.6,326.1,102.8,324.4,104.6,323.6"/>
<path fill="#1766A6" d="M-14.8,292.5c0,4.7,17.7,28.9,21.1,28.9c3,0,4.7-4.7,4.7-9c0-1.3-0.4-2.2-0.9-3
	c-2.6-3.4-20.2-17.7-24.6-17.7C-14.3,291.7-14.8,292.1-14.8,292.5z M-118.1,277.9c0,3-10.8,12.1-14.6,12.1c-1.3,0-1.7-1.7-1.7-3.4
	c0-3,1.3-6.9,3-8.2c1.7-1.7,6-2.6,9.5-2.6C-120.7,276.6-118.1,277-118.1,277.9z M10.7,286.1c0-8.6-22.8-23.7-23.3-30.6
	c0-0.4,0.4-1.3,0.9-1.7c3.9-4.3,20.2-7.3,20.2-10.8c0-1.7-3.4-1.7-5.2-1.7c-12.9,0-32.3,4.7-32.3,9.5c0,4.7,17.2,16.4,17.2,22.4
	c0,1.7-0.9,2.2-2.6,2.2c-4.7,0-15.1-5.6-20.2-5.6c-2.2,0-3,1.7-3,3.9c0,6.9,8.2,19.8,8.2,23.3c0,0.4,0,0.9-0.9,0.9
	c-2.6,0-14.6-14.2-19-14.2c-1.7,0-1.7,2.2-1.7,5.2v4.7c0,3.4,0,5.2-1.7,5.2c-3.9,0-5.2-10.3-9-10.3s-4.3,18.5-7.8,18.5
	c-4.3,0-0.4-20.2-4.3-20.2c-4.3,0-9.5,13.4-12.5,13.4c-1.3,0-1.3-1.3-1.3-2.2c0-3.9,2.6-10.8,2.6-14.6c0-2.2-0.4-3-2.2-3
	c-4.3,0-13.8,6.9-17.7,6.9c-0.4,0-1.3-0.4-1.3-0.9c0-3.4,15.5-14.2,15.5-19c0-4.7-21.1-1.7-21.1-6.9c0-4.3,15.1-9,15.1-13.8
	c0-3.9-18.1-6-25-6c-8.2,0-12.9,0.9-12.9,3.4c0,3.9,19,4.7,19,8.2c0,3-19.8,11.6-19.8,16.4c0,4.3,27.6,0.4,27.6,4.7
	c0,4.7-24.1,25.4-24.1,32.3c0,1.7,1.3,2.2,2.6,2.2c7.3,0,26.3-13.8,31.4-13.8c1.7,0,2.2,2.2,2.2,4.3c0,3.9-1.3,9.5-1.3,13.4
	c0,3.4,0.9,5.6,3.9,5.6c5.2,0,9.9-9,13.4-9c4.3,0,1.7,26.3,8.6,26.3c5.6,0,8.2-28,12.1-28s6.5,8.2,9.9,8.2c4.3,0,2.2-14.2,6.9-14.2
	s19,16.8,25.4,16.8c2.2,0,2.6-1.7,2.6-3.4c0-7.3-10.3-24.6-10.3-29.7c0-1.3,0.4-1.7,2.2-1.7c5.6,0,21.5,7.8,29.3,7.8
	C8.9,289.5,10.7,288.2,10.7,286.1z M-4.4,258.5c0,2.6,9,8.2,12.9,8.2c2.6,0,3-3.4,3-6.5c0-4.3-1.7-4.3-5.6-4.3
	C1.6,255.5-4.4,256.8-4.4,258.5z M-37.6,243.9c0-0.9-4.3-1.7-9.9-1.7c-9,0-7.8,7.8-15.1,7.8s-5.6-7.8-14.6-7.8
	c-5.6,0-10.8,0.9-10.8,2.2c0,1.7,6.5,0.9,6.5,5.6c0,4.7-14.2,6.5-14.2,9.5c0,0.9,1.3,1.3,2.6,1.3c3,0,8.2-1.3,11.6-1.3
	c2.2,0,3.9,0.4,3.9,2.2c0,3.4-7.8,9.9-7.8,12.5c0,0.9,0.9,1.3,1.3,1.3c3,0,7.8-7.3,12.1-7.3c7.3,0,2.6,15.9,6.5,15.9
	c4.3,0,2.6-15.5,8.6-15.5c4.7,0,8.6,10.8,12.1,10.8c0.9,0,1.7-0.9,1.7-1.7c0-3-4.3-9-4.3-12.9c0-2.6,1.7-3.4,3.9-3.4
	c3.4,0,7.8,2.2,9.9,2.2c0.9,0,1.7-0.4,1.7-1.3c0-3.4-12.5-6.9-12.5-11.6C-44.5,246-37.6,246-37.6,243.9"/>
<path fill="#1766A6" d="M212.7,266.7c0,12.5-9,22-25.8,25c1.7,0,3.4,0,5.2,0c19.4,0,26.3-8.6,26.3-15.9
	C218.7,271.4,216.6,268,212.7,266.7z M189,280.9c0-9.9-24.1-12.5-24.1-14.6c0-1.7,13.4-4.7,20.2-5.2c-10.8-13.4-25.8-12.1-25.8-14.6
	c0-1.3,11.2-4.3,21.5-4.3c8.6,0,16.8,2.2,16.8,8.6c0,3.9-3,7.3-3,12.9c0,3,1.7,5.6,5.6,5.6c4.3,0,5.2-4.7,5.2-9.5
	c0-3.9-0.9-7.3-0.9-9c0-6,3.9-9.9,9.9-9.9c4.7,0,6,2.2,12.9,2.2c-3.9,2.2-5.2,6.5-5.2,8.2c0,6,3.9,9.9,3.9,22
	c0,22.4-20.7,30.2-46.5,30.2c-6.9,0-14.6-0.4-22-1.7c-1.3,0-1.3-0.4-1.3-1.3c0-1.7,9.9-3,9.9-12.1c0-3.4-1.3-6.9-1.3-8.2
	c0-0.9,0.4-1.3,1.3-1.3c2.2,0,6.5,8.2,14.2,8.2C183.8,288.2,189,287.4,189,280.9z M211.8,249.9c0,2.2,1.7,3.4,3.4,3.4
	c1.7,0,3.4-1.7,3.4-3.4c0-2.2-1.7-3.4-3.4-3.4C213.6,246.4,211.8,247.7,211.8,249.9"/>
<path fill="#1766A6" d="M199.3,380.4c0-3-7.3-3.4-8.2-11.6c0-1.3-0.4-3.4-2.2-3.4c-2.6,0-0.4,7.8-3.4,7.8c-6.5,0-8.6-12.5-11.2-12.5
	c-0.4,0-1.3,0.4-1.3,2.2c0,1.7,0.4,2.6,0.4,4.3s-0.4,3-2.2,3c-3.9,0-7.3-9-10.3-9c-0.9,0-1.3,0.4-1.3,1.3c0,1.7,3,4.7,3,6.5
	c0,3.4-9,1.7-9,4.3c0,1.3,1.3,1.7,3,1.7c3,0,7.8-1.3,9.9-1.3c1.3,0,3.4,0.4,3.4,2.2c0,2.2-5.2,4.3-5.2,6.5c0,0.9,0.9,1.3,1.7,1.3
	c3.9,0,10.8-6.5,15.5-6.5c0.9,0,3,0.4,3,1.7c0,1.7-4.7,5.2-4.7,7.8c0,0.9,0.4,1.7,1.3,1.7c2.6,0,6-6.5,10.8-6.5c1.7,0,4.3,0.9,6,0.9
	C198.9,381.3,199.3,380.8,199.3,380.4z M203.2,448.5c2.2-6.9,5.2-12.1,9.9-19.8c-4.7-2.6-16.8-7.3-16.8-15.9
	c0-9.9,12.1-17.2,14.6-17.2c1.3,0,1.3,0.9,1.3,3c0,5.2-2.6,13.4-2.6,17.7c0,3.9,2.6,7.8,4.7,7.8c2.6,0,9-8.6,9-16.8
	c0-15.1-12.9-19.4-17.2-19.4c-3.9,0-10.8,6-27.1,6c-30.2,0-37-30.2-37-43.1c0-0.4,0-0.9,0.4-0.9c0.9,0,3.9,3.9,13.4,3.9
	c4.7,0,9.5-1.3,16.8-1.3c16.8,0,24.6,11.6,34.9,26.7c6.5,3.9,21.5,10.3,21.5,28c0,15.9-16.8,24.6-20.7,41.4
	c6.5-0.9,10.3-12.5,16.8-12.5c3.4,0,4.7,2.6,4.7,6.9c0,6-3.4,15.5-10.3,21.1c0-0.4,0-1.3,0-2.2c0-3.9-1.7-9.5-6-9.5
	c-6.9,0-9.5,7.8-13.4,13.8c-4.3-14.2-9.5-27.6-19.4-35.3c-9.9-8.2-27.1-3.9-27.1-18.5c0-3.9,2.6-9.5,2.6-14.2c0-1.7-0.4-3-1.3-4.3
	c13.4,5.2,8.6,14.2,17.2,23.3c5.2,6,19.4,11.6,28,36.2c0-0.9,0.4-2.6,0.4-3.9c0-20.7-27.6-41.4-30.2-50c15.9,1.7,19,5.6,26.7,27.1
	C198,432.5,203.2,443.3,203.2,448.5"/>
<path fill="#1766A6" d="M125.7,299.4c-9.9,0-16.4-4.7-16.4-7.3c0-1.3,0.9-2.2,2.2-2.2c3,0,9.9,4.7,12.1,4.7c0.4,0,0.9-0.4,0.9-1.3
	c0-2.6-2.6-6.9-2.6-9c0-0.4,0.4-0.9,1.3-0.9c3.9,0,9.5,1.7,12.5,1.7c0.9,0,1.3-0.4,1.3-1.3c0-3-9-9-9-11.2c0-1.7,11.2-4.3,11.2-6.9
	c0-3-15.5-0.9-15.5-3.4c0-2.2,3-5.2,3-6.9c0-0.9-0.4-0.9-1.7-0.9c-1.3,0-8.2,2.6-10.8,2.6c-1.3,0-3-0.4-3-2.2
	c0-3.4,5.6-6.9,14.2-6.9c13.8,0,22.4,9.5,22.4,25.8C147.6,294.3,133.4,299.4,125.7,299.4z M98.5,272.7c0-1.7-5.6-4.3-5.6-6
	c0-0.4,0.4-0.4,0.9-0.4c1.7,0,4.3,0.4,6.5,0.4c1.7,0,2.2-7.8,3.4-7.8c0.9,0,2.6,7.3,4.3,7.3c1.7,0,5.2-2.2,6.5-2.2
	c0.4,0,0.4,0,0.4,0.4c0,0.9-3.4,4.7-3.4,6c0,1.3,7.8,3,7.8,3.9c0,1.3-8.2,1.3-8.2,2.6c0,0.9,3,4.7,3,6c0,0.4,0,0.4-0.4,0.4
	c-1.3,0-5.6-2.2-6.9-2.2c-1.7,0-3.9,5.6-5.2,5.6c-0.4,0-0.9-0.4-0.9-1.3l-0.4-5.6c0-0.4-0.4-1.3-0.9-1.3c-1.7,0-4.7,0-6,0
	c-0.9,0-0.9,0-0.9-0.4C92.5,277.5,98.5,273.6,98.5,272.7z M94.2,295.6c2.2,0,2.6,5.6,3,8.6c0.4,1.7,0.4,1.7,1.3,1.7
	c1.7,0,4.3-6.5,6-6.5c2.6,0,9.9,7.3,22,7.3c17.2,0,33.2-12.1,33.2-33.2c0-20.2-14.2-32.3-34.5-32.3c-9.5,0-16.4,4.7-20.2,4.7
	c-2.2,0-5.6-5.6-7.3-5.6c-0.9,0-1.3,1.3-1.3,3.9c0,1.7,0,6.5-1.7,6.5c-3.4,0-16.4-9.9-16.4-6c0,3.4,8.6,12.9,8.6,15.5
	c0,2.6-8.6,4.7-8.6,6.5c0,3,9,3.9,9,7.8c0,3.9-9.5,6.9-9.5,9.9c0,2.6,9.5,0.9,9.5,3.9c0,3-6.9,12.9-6.9,15.5c0,0.9,0,0.9,0.9,0.9
	C84.3,305,92.1,295.6,94.2,295.6"/>
<path fill="#1766A6" d="M30.5,543.2c0,1.3-0.4,2.6-1.7,3.9c-1.7-3-6-4.3-7.8-4.3c-14.6,0-9,21.1-24.6,21.1c-6.5,0-6.9-0.9-9.5-0.9
	c-0.9,0-1.7,0.4-1.7,1.3c0,3.9,5.2,12.5,19.8,12.5s28.4-9,28.4-19.8c0-1.7-0.4-3.9-1.3-5.6c0.4-0.9,2.2-1.3,3.4-1.3
	c2.2,0,3.4,2.6,5.6,2.6c2.2,0,3.9-1.7,3.9-3.9c0-1.7-0.9-3-2.6-3.9c1.3-0.9,2.2-2.2,2.2-3.9c0-2.6-1.7-4.7-4.7-4.7
	c-1.3,0-2.2,0.4-3,1.3c-0.4-2.6-1.7-4.7-4.3-4.7c-2.2,0-3.9,1.7-3.9,3.9C28.8,539.4,30.5,541.1,30.5,543.2"/>
<path fill="#1766A6" d="M-47.1,517.4c11.2,3,16.8,9,18.1,15.9c1.3,6.9,2.6,12.5,5.2,15.5c3.4,3.9,10.3,7.3,16.4,7.3
	c5.2,0,9-1.7,9-6.5c0-5.2-6.9-16.4-17.2-16.4c-0.9,0-2.2,0-3.9,0c-1.3,0-3-0.4-4.3-1.3c-2.2-2.2-3-12.5-7.3-19
	c-4.7-6.9-9.9-9-16.8-9c-4.7,0-10.3,2.6-10.3,6.5C-57.4,513.1-56.1,514.8-47.1,517.4z M-7.4,548.8c-4.3,0-10.8-4.7-10.8-6.9
	s2.2-3.4,3.4-3.4c3.4,0,9.9,4.3,9.9,8.2C-4.8,547.6-5.7,548.8-7.4,548.8"/>
<path fill="#1766A6" d="M-20.8,439c0-9,21.5-13.8,21.5-25c0-1.7-0.9-5.2-2.2-7.3c7.3,3.9,12.9,11.2,12.9,16.8
	c0,9.9-10.3,14.2-10.3,20.2c0,6.9,10.8,8.2,10.8,16.8c0,7.3-10.3,15.5-10.3,25c0,7.3,5.2,12.9,12.9,14.2c-2.6,0.4-4.7,0.9-7.3,0.9
	c-14.2,0-28.9-11.6-28.9-25.8c0-6.9,3-12.9,7.3-17.2c3.9,3.4,7.8,5.6,10.3,5.6c2.2,0,3.4-1.3,3.4-3C0.3,454.9-20.8,450.2-20.8,439z
	 M24.4,510.1c-4.7,2.2-6.9,1.7-6.9,6.9c0,1.7-0.4,4.3-0.4,5.6c0,1.7,0.4,2.6,2.2,2.6c5.2,0,12.9-8.6,12.9-15.9c0-2.2-1.3-3-2.6-3
	C29.2,506.2,27.9,508.8,24.4,510.1z M24,500.2c0-6.5-12.9-6.5-12.9-15.9c0-2.6,1.7-6.5,4.7-10.8c1.3,7.3,4.3,11.2,10.8,13.4
	c12.5,4.7,14.2,11.6,14.2,19.4c0,12.5-9,28.4-31.9,28.4c-18.5,0-31.4-16.4-31.4-30.2c0-3.9,0.9-8.2,3.4-8.2c2.2,0,3,1.7,4.3,3.4
	c6.5,6.5,13.4,8.2,23.3,8.2C17.1,507.5,24,503.6,24,500.2"/>
<path fill="#1766A6" d="M-75.9,503.2c0.4,3-1.7,5.6-4.7,6c-3,0.4-5.6-1.7-6-4.7c-0.4-3,1.7-5.6,4.7-6
	C-78.9,498-76.4,500.2-75.9,503.2z M-102.2,508.8c0.4,4.7,5.2,8.6,10.3,7.8c1.7,0,3.4-0.9,4.7-1.3c1.3,4.3,4.7,7.3,9.9,6.9
	c5.2-0.9,8.6-4.7,8.2-9.9c0-1.3-0.4-2.2-0.9-3.4c0,0,0.9,0,1.3,0c5.2-0.9,8.6-5.2,8.2-9.9c-0.4-5.2-5.2-9-9.9-8.2
	c-1.7,0.4-3.4,0.9-4.7,1.7c-1.3-4.3-5.2-7.8-10.8-6.9c-4.7,0.9-8.2,5.2-7.8,10.3c0,0.9,0.4,1.7,0.9,3c0,0-0.9,0-1.3,0
	C-98.8,498.9-103.1,503.2-102.2,508.8"/>
</svg>
